<mxfile host="Electron" agent="Mozilla/5.0 (Macintosh; Intel Mac OS X 10_15_7) AppleWebKit/537.36 (KHTML, like Gecko) draw.io/28.0.6 Chrome/138.0.7204.100 Electron/37.2.3 Safari/537.36" version="28.0.6">
  <diagram name="Page-1" id="sTwF0OmUDw-EeGOP43Nh">
    <mxGraphModel dx="1412" dy="845" grid="1" gridSize="10" guides="1" tooltips="1" connect="1" arrows="1" fold="1" page="1" pageScale="1" pageWidth="850" pageHeight="1100" math="0" shadow="0">
      <root>
        <mxCell id="0" />
        <mxCell id="1" parent="0" />
        <mxCell id="4OGfQ276zdyuzOtmb5JK-3" value="rdf:type" style="edgeStyle=orthogonalEdgeStyle;rounded=0;orthogonalLoop=1;jettySize=auto;html=1;" edge="1" parent="1" source="4OGfQ276zdyuzOtmb5JK-2" target="4OGfQ276zdyuzOtmb5JK-1">
          <mxGeometry relative="1" as="geometry" />
        </mxCell>
        <mxCell id="4OGfQ276zdyuzOtmb5JK-1" value="owl:ObjectProperty" style="rounded=0;whiteSpace=wrap;html=1;" vertex="1" parent="1">
          <mxGeometry x="250" y="210" width="120" height="60" as="geometry" />
        </mxCell>
        <mxCell id="4OGfQ276zdyuzOtmb5JK-6" value="rdfs:range" style="edgeStyle=orthogonalEdgeStyle;rounded=0;orthogonalLoop=1;jettySize=auto;html=1;entryX=0.5;entryY=0;entryDx=0;entryDy=0;" edge="1" parent="1" source="4OGfQ276zdyuzOtmb5JK-2" target="4OGfQ276zdyuzOtmb5JK-20">
          <mxGeometry relative="1" as="geometry">
            <mxPoint x="410" y="490" as="targetPoint" />
          </mxGeometry>
        </mxCell>
        <mxCell id="4OGfQ276zdyuzOtmb5JK-8" value="rdfs:domain" style="edgeStyle=orthogonalEdgeStyle;rounded=0;orthogonalLoop=1;jettySize=auto;html=1;" edge="1" parent="1" source="4OGfQ276zdyuzOtmb5JK-2" target="4OGfQ276zdyuzOtmb5JK-7">
          <mxGeometry relative="1" as="geometry" />
        </mxCell>
        <mxCell id="4OGfQ276zdyuzOtmb5JK-2" value="mds:eats" style="rounded=0;whiteSpace=wrap;html=1;" vertex="1" parent="1">
          <mxGeometry x="250" y="350" width="120" height="60" as="geometry" />
        </mxCell>
        <mxCell id="4OGfQ276zdyuzOtmb5JK-7" value="mds:eats" style="rounded=0;whiteSpace=wrap;html=1;" vertex="1" parent="1">
          <mxGeometry x="150" y="490" width="120" height="60" as="geometry" />
        </mxCell>
        <mxCell id="4OGfQ276zdyuzOtmb5JK-9" value="cco:Object" style="rounded=0;whiteSpace=wrap;html=1;" vertex="1" parent="1">
          <mxGeometry x="620" y="220" width="120" height="60" as="geometry" />
        </mxCell>
        <mxCell id="4OGfQ276zdyuzOtmb5JK-11" value="rdfs:subClassOf" style="edgeStyle=orthogonalEdgeStyle;rounded=0;orthogonalLoop=1;jettySize=auto;html=1;" edge="1" parent="1" source="4OGfQ276zdyuzOtmb5JK-10" target="4OGfQ276zdyuzOtmb5JK-9">
          <mxGeometry relative="1" as="geometry" />
        </mxCell>
        <mxCell id="4OGfQ276zdyuzOtmb5JK-10" value="mds:Food" style="rounded=0;whiteSpace=wrap;html=1;" vertex="1" parent="1">
          <mxGeometry x="620" y="360" width="120" height="60" as="geometry" />
        </mxCell>
        <mxCell id="4OGfQ276zdyuzOtmb5JK-14" value="rdf:type" style="edgeStyle=orthogonalEdgeStyle;rounded=0;orthogonalLoop=1;jettySize=auto;html=1;" edge="1" parent="1" source="4OGfQ276zdyuzOtmb5JK-13" target="4OGfQ276zdyuzOtmb5JK-10">
          <mxGeometry relative="1" as="geometry" />
        </mxCell>
        <mxCell id="4OGfQ276zdyuzOtmb5JK-13" value="mds:Pizza" style="rounded=0;whiteSpace=wrap;html=1;" vertex="1" parent="1">
          <mxGeometry x="550" y="490" width="120" height="60" as="geometry" />
        </mxCell>
        <mxCell id="4OGfQ276zdyuzOtmb5JK-16" value="rdf:type" style="edgeStyle=orthogonalEdgeStyle;rounded=0;orthogonalLoop=1;jettySize=auto;html=1;exitX=0.5;exitY=0;exitDx=0;exitDy=0;entryX=0.5;entryY=1;entryDx=0;entryDy=0;" edge="1" parent="1" source="4OGfQ276zdyuzOtmb5JK-15" target="4OGfQ276zdyuzOtmb5JK-10">
          <mxGeometry relative="1" as="geometry" />
        </mxCell>
        <mxCell id="4OGfQ276zdyuzOtmb5JK-15" value="mds:Donut" style="rounded=0;whiteSpace=wrap;html=1;" vertex="1" parent="1">
          <mxGeometry x="700" y="490" width="120" height="60" as="geometry" />
        </mxCell>
        <mxCell id="4OGfQ276zdyuzOtmb5JK-20" value="owl:unionOf" style="swimlane;fontStyle=0;childLayout=stackLayout;horizontal=1;startSize=30;horizontalStack=0;resizeParent=1;resizeParentMax=0;resizeLast=0;collapsible=1;marginBottom=0;whiteSpace=wrap;html=1;" vertex="1" parent="1">
          <mxGeometry x="340" y="490" width="140" height="180" as="geometry" />
        </mxCell>
        <mxCell id="4OGfQ276zdyuzOtmb5JK-21" value="mds:Pizza" style="text;strokeColor=none;fillColor=none;align=left;verticalAlign=middle;spacingLeft=4;spacingRight=4;overflow=hidden;points=[[0,0.5],[1,0.5]];portConstraint=eastwest;rotatable=0;whiteSpace=wrap;html=1;" vertex="1" parent="4OGfQ276zdyuzOtmb5JK-20">
          <mxGeometry y="30" width="140" height="30" as="geometry" />
        </mxCell>
        <mxCell id="4OGfQ276zdyuzOtmb5JK-22" value="mds:Donut" style="text;strokeColor=none;fillColor=none;align=left;verticalAlign=middle;spacingLeft=4;spacingRight=4;overflow=hidden;points=[[0,0.5],[1,0.5]];portConstraint=eastwest;rotatable=0;whiteSpace=wrap;html=1;" vertex="1" parent="4OGfQ276zdyuzOtmb5JK-20">
          <mxGeometry y="60" width="140" height="30" as="geometry" />
        </mxCell>
        <mxCell id="4OGfQ276zdyuzOtmb5JK-25" value="owl:intersectionOf" style="swimlane;fontStyle=0;childLayout=stackLayout;horizontal=1;startSize=30;horizontalStack=0;resizeParent=1;resizeParentMax=0;resizeLast=0;collapsible=1;marginBottom=0;whiteSpace=wrap;html=1;" vertex="1" parent="4OGfQ276zdyuzOtmb5JK-20">
          <mxGeometry y="90" width="140" height="90" as="geometry" />
        </mxCell>
        <mxCell id="4OGfQ276zdyuzOtmb5JK-26" value="mds:Bagel" style="text;strokeColor=none;fillColor=none;align=left;verticalAlign=middle;spacingLeft=4;spacingRight=4;overflow=hidden;points=[[0,0.5],[1,0.5]];portConstraint=eastwest;rotatable=0;whiteSpace=wrap;html=1;" vertex="1" parent="4OGfQ276zdyuzOtmb5JK-25">
          <mxGeometry y="30" width="140" height="30" as="geometry" />
        </mxCell>
        <mxCell id="4OGfQ276zdyuzOtmb5JK-27" value="mds:FriedChicken" style="text;strokeColor=none;fillColor=none;align=left;verticalAlign=middle;spacingLeft=4;spacingRight=4;overflow=hidden;points=[[0,0.5],[1,0.5]];portConstraint=eastwest;rotatable=0;whiteSpace=wrap;html=1;" vertex="1" parent="4OGfQ276zdyuzOtmb5JK-25">
          <mxGeometry y="60" width="140" height="30" as="geometry" />
        </mxCell>
      </root>
    </mxGraphModel>
  </diagram>
</mxfile>
